<?xml version="1.0" encoding="utf-8"?>
<!-- Generator: Adobe Illustrator 26.0.0, SVG Export Plug-In . SVG Version: 6.00 Build 0)  -->
<svg version="1.1" id="Layer_1" xmlns="http://www.w3.org/2000/svg" xmlns:xlink="http://www.w3.org/1999/xlink" x="0px" y="0px"
	 viewBox="0 0 2000 2000" style="enable-background:new 0 0 2000 2000;" xml:space="preserve">
<style type="text/css">
	.st0{fill:#3573EF;}
	.st1{fill:#139FC6;}
	.st2{fill:#00547B;}
	.st3{fill:#55A1C0;}
	.st4{fill:#005679;}
	.st5{fill:#125783;}
</style>
<polygon class="st0" points="940.29,966.96 940.31,966.97 940.31,966.92 "/>
<g>
	<g>
		<path class="st1" d="M470.39,1265.62l-22.46-88.63h12.13l10.56,44.85c2.55,11.08,4.92,22.06,6.5,30.64h0.31
			c1.44-8.8,4.22-19.37,7.21-30.77l11.9-44.71h11.87l10.83,44.91c2.47,10.61,4.85,21.06,6.22,30.4h0.28
			c1.77-9.72,4.23-19.59,6.99-30.62l11.72-44.69h11.75l-25.15,88.63H519.1l-11.16-46.11c-2.81-11.42-4.66-20.03-5.86-28.99h-0.26
			c-1.46,8.89-3.53,17.51-6.82,28.97l-12.54,46.13H470.39z"/>
		<path class="st1" d="M691.88,1224.07h-34.36v32.01h38.43v9.54h-49.94v-88.63h47.91v9.53h-36.41v28.07h34.36V1224.07z"/>
		<path class="st1" d="M789.55,1178.21c5.06-1.1,12.97-1.91,20.91-1.91c11.49,0,18.83,1.95,24.33,6.43c4.58,3.47,7.4,8.75,7.4,15.69
			c0,8.56-5.71,16.11-14.99,19.41v0.35c8.44,2.03,18.3,8.98,18.3,22.23c0,7.57-3.01,13.42-7.59,17.66
			c-6.1,5.73-16.08,8.32-30.59,8.32c-7.93,0-13.93-0.55-17.78-0.99V1178.21z M800.99,1214.52h10.49c11.98,0,19.08-6.38,19.08-14.97
			c0-10.27-7.79-14.43-19.37-14.43c-5.31,0-8.33,0.39-10.2,0.82V1214.52z M800.99,1256.91c2.34,0.47,5.5,0.59,9.64,0.59
			c11.89,0,22.81-4.36,22.81-17.25c0-12.05-10.43-17.1-22.93-17.12h-9.53V1256.91z"/>
		<path class="st2" d="M1046.38,1178.21c7.02-1.15,15.34-1.91,24.36-1.91c16.4,0,28.15,3.89,35.91,11.13
			c7.93,7.18,12.55,17.44,12.55,31.71c0,14.53-4.54,26.29-12.75,34.48c-8.37,8.25-22.07,12.77-39.24,12.77
			c-8.2,0-15-0.32-20.82-0.99V1178.21z M1057.88,1256.61c2.9,0.47,7.14,0.54,11.51,0.54c24.53,0.06,37.74-13.61,37.74-37.57
			c0.14-20.93-11.7-34.14-35.84-34.14c-5.92,0-10.36,0.55-13.41,1.17V1256.61z"/>
		<path class="st2" d="M1258.65,1224.07h-34.36v32.01h38.43v9.54h-49.93v-88.63h47.91v9.53h-36.41v28.07h34.36V1224.07z"/>
		<path class="st2" d="M1354.84,1251.67c5.11,3.2,12.58,5.74,20.45,5.74c11.7,0,18.59-6.11,18.59-15.09
			c0-8.22-4.81-13.06-16.77-17.54c-14.46-5.13-23.43-12.74-23.43-25.14c0-13.79,11.46-24.04,28.73-24.04c9,0,15.68,2.09,19.55,4.28
			l-3.19,9.38c-2.82-1.68-8.75-4.21-16.74-4.21c-12.17,0-16.78,7.22-16.78,13.25c0,8.23,5.39,12.29,17.63,17.02
			c15.03,5.9,22.61,13.11,22.61,26.11c0,13.59-10.02,25.55-31.02,25.55c-8.57,0-17.91-2.58-22.65-5.78L1354.84,1251.67z"/>
		<path class="st2" d="M1511.49,1176.99v88.63h-11.5v-88.63H1511.49z"/>
		<path class="st2" d="M1677.82,1261.64c-5.13,1.93-15.31,4.87-27.24,4.87c-13.44,0-24.53-3.4-33.14-11.71
			c-7.64-7.36-12.35-19.12-12.33-32.91c0.04-26.43,18.22-45.78,47.92-45.78c10.24,0,18.36,2.25,22.17,4.06l-2.86,9.34
			c-4.73-2.15-10.64-3.79-19.58-3.79c-21.5,0-35.6,13.39-35.6,35.58c0,22.46,13.48,35.76,34.21,35.76c7.48,0,12.56-1.06,15.21-2.39
			v-26.4h-17.94v-9.15h29.19V1261.64z"/>
		<path class="st2" d="M1774.05,1265.62v-88.63h12.59l28.38,44.79c6.48,10.4,11.63,19.71,15.82,28.86l0.29-0.14
			c-1.04-11.83-1.24-22.64-1.24-36.37v-37.15h10.77v88.63h-11.62l-28.17-44.92c-6.11-9.93-12.07-20.04-16.49-29.68l-0.39,0.14
			c0.68,11.23,0.83,21.91,0.83,36.56v37.9H1774.05z"/>
		<path class="st2" d="M1937.92,1251.67c5.11,3.2,12.58,5.74,20.45,5.74c11.7,0,18.59-6.11,18.59-15.09
			c0-8.22-4.81-13.06-16.77-17.54c-14.46-5.13-23.43-12.74-23.43-25.14c0-13.79,11.46-24.04,28.73-24.04c9,0,15.68,2.09,19.55,4.28
			l-3.19,9.38c-2.82-1.68-8.75-4.21-16.74-4.21c-12.18,0-16.78,7.22-16.78,13.25c0,8.23,5.39,12.29,17.63,17.02
			c15.03,5.9,22.61,13.11,22.61,26.11c0,13.59-10.02,25.55-31.02,25.55c-8.57,0-17.91-2.58-22.65-5.78L1937.92,1251.67z"/>
	</g>
	<g>
		<polygon class="st3" points="499.39,1476.34 23.05,1000 499.39,523.66 514.12,538.39 519.93,532.58 499.39,512.05 11.44,1000 
			499.39,1487.95 519.93,1467.42 514.12,1461.61 		"/>
		<polygon class="st3" points="573.33,1476.34 558.6,1461.61 552.79,1467.42 573.33,1487.95 749.11,1312.18 737.49,1312.18 		"/>
		<g>
			<polygon class="st3" points="666.96,1312.18 655.34,1312.18 532.25,1435.26 96.99,1000 532.25,564.74 704.63,737.12 
				716.25,737.12 538.06,558.93 552.79,544.2 546.98,538.39 532.25,553.12 517.52,538.39 511.71,544.2 526.44,558.93 85.37,1000 
				526.44,1441.07 511.71,1455.8 517.52,1461.61 532.25,1446.88 546.98,1461.61 552.79,1455.8 538.06,1441.07 			"/>
			<polygon class="st3" points="573.33,523.66 786.78,737.12 798.4,737.12 573.33,512.05 552.79,532.58 558.6,538.39 			"/>
			<polygon class="st4" points="708.03,1312.18 696.41,1312.18 552.79,1455.8 546.98,1461.61 532.25,1476.34 517.52,1461.61 
				511.71,1455.8 55.91,1000 511.71,544.2 517.52,538.39 532.25,523.66 546.98,538.39 552.79,544.2 745.71,737.12 757.32,737.12 
				558.6,538.39 552.79,532.58 532.25,512.05 511.71,532.58 505.91,538.39 44.3,1000 505.91,1461.61 511.71,1467.42 532.25,1487.95 
				552.79,1467.42 558.6,1461.61 			"/>
		</g>
	</g>
	<g>
		<path class="st5" d="M413.11,1080.17c16.67,10.26,41.05,18.81,66.7,18.81c38.05,0,60.29-20.1,60.29-49.17
			c0-26.94-15.39-42.33-54.3-57.3c-47.03-16.67-76.11-41.05-76.11-81.67c0-44.89,37.2-78.25,93.21-78.25
			c29.5,0,50.88,6.84,63.71,14.11l-10.26,30.36c-9.41-5.13-28.65-13.68-54.73-13.68c-39.34,0-54.3,23.52-54.3,43.19
			c0,26.94,17.53,40.19,57.3,55.58c48.75,18.81,73.54,42.33,73.54,84.66c0,44.47-32.92,82.95-100.91,82.95
			c-27.79,0-58.15-8.12-73.54-18.39L413.11,1080.17z"/>
		<path class="st5" d="M762,837.3h37.2v256.98h123.14v31.21H762V837.3z"/>
		<path class="st1" d="M1246,990.37h-112.03v103.9h124.86v31.21h-162.06V837.3h155.64v31.21h-118.44v91.08H1246V990.37z"/>
		<path class="st5" d="M1589.32,990.37h-112.03v103.9h124.86v31.21H1440.1V837.3h155.64v31.21h-118.45v91.08h112.03V990.37z"/>
		<path class="st5" d="M1783.42,837.3h37.19v138.96h1.28c7.7-11.12,15.4-21.38,22.66-30.79l88.08-108.18h46.18L1874.5,959.59
			l112.45,165.9h-44.04l-94.92-141.53l-27.37,31.64v109.89h-37.19V837.3z"/>
	</g>
</g>
</svg>
